<?xml version="1.0" standalone="no"?>
<!DOCTYPE svg PUBLIC "-//W3C//DTD SVG 20010904//EN"
 "http://www.w3.org/TR/2001/REC-SVG-20010904/DTD/svg10.dtd">
<svg version="1.0" xmlns="http://www.w3.org/2000/svg"
 width="16.000000pt" height="16.000000pt" viewBox="0 0 16.000000 16.000000"
 preserveAspectRatio="xMidYMid meet">
<metadata>
Created by potrace 1.11, written by Peter Selinger 2001-2013
</metadata>
<g transform="translate(0.000000,16.000000) scale(0.002667,-0.002667)"
fill="#000000" stroke="none">
<path d="M2909 5983 c-23 -27 -75 -150 -93 -222 -15 -60 -24 -118 -30 -188 -1
-18 -4 -35 -7 -37 -7 -7 -56 -15 -130 -22 l-65 -5 -13 43 c-30 101 -97 218
-179 316 -44 52 -45 53 -88 47 -24 -3 -72 -16 -106 -28 l-63 -22 -12 -55 c-24
-102 -23 -260 2 -390 l6 -35 -88 -38 c-49 -20 -91 -37 -94 -37 -3 0 -23 25
-42 55 -47 70 -166 189 -239 239 -52 36 -58 37 -90 26 -18 -6 -60 -28 -93 -49
l-60 -37 1 -82 c1 -96 22 -183 75 -306 21 -50 37 -90 36 -91 -1 -1 -32 -24
-69 -53 -37 -29 -69 -52 -71 -52 -2 0 -17 12 -33 26 -100 88 -286 191 -363
201 -34 4 -41 0 -106 -66 l-69 -71 12 -44 c26 -97 138 -293 207 -363 9 -8 12
-20 8 -26 -7 -13 -91 -126 -104 -141 -5 -5 -37 4 -78 23 -110 51 -201 74 -335
86 -44 4 -52 1 -75 -24 -14 -16 -41 -58 -59 -94 l-34 -66 35 -53 c56 -84 137
-168 224 -232 l80 -59 -24 -61 c-46 -113 -48 -116 -85 -106 -76 20 -261 29
-321 15 -12 -3 -33 -7 -47 -9 -75 -12 -79 -15 -99 -80 -10 -33 -22 -80 -26
-103 -6 -38 -4 -44 27 -73 69 -67 216 -153 323 -190 49 -17 50 -18 49 -56 -1
-67 -14 -148 -25 -154 -5 -4 -33 -8 -61 -9 -107 -5 -241 -42 -348 -96 -48 -24
-50 -27 -51 -68 -2 -69 2 -161 7 -169 9 -15 102 -57 176 -82 86 -27 159 -41
244 -44 l41 -2 13 -89 c7 -49 10 -96 7 -103 -3 -8 -25 -20 -48 -27 -94 -28
-248 -119 -322 -189 -31 -31 -37 -42 -33 -67 11 -63 45 -168 57 -176 56 -34
320 -40 436 -9 22 5 35 4 41 -3 20 -26 74 -171 64 -175 -21 -7 -120 -86 -176
-140 -63 -62 -146 -171 -146 -193 0 -17 42 -100 78 -152 l26 -39 70 7 c122 10
249 46 346 95 22 11 41 20 44 20 7 0 116 -142 116 -152 0 -4 -23 -36 -51 -70
-57 -71 -113 -166 -145 -247 -41 -105 -42 -101 36 -180 39 -39 77 -71 85 -71
20 0 130 42 192 74 29 14 91 55 139 91 l86 66 78 -59 c58 -44 76 -63 69 -73
-41 -64 -105 -284 -109 -374 -4 -90 -5 -89 127 -160 l51 -28 39 23 c86 53 197
159 262 251 l47 67 75 -32 c103 -43 98 -36 82 -108 -18 -87 -18 -221 2 -340
10 -63 19 -72 95 -96 116 -37 124 -36 171 16 73 81 148 213 183 320 10 28 21
50 24 48 4 -2 31 -6 60 -10 60 -7 126 -17 128 -19 1 -1 5 -34 8 -74 11 -120
56 -270 109 -360 l18 -31 98 0 c53 0 101 2 107 6 15 12 50 83 77 158 27 76 47
168 52 247 2 27 5 51 8 53 6 6 29 10 102 19 32 3 63 9 67 11 4 3 12 -5 17 -18
65 -168 123 -270 204 -357 44 -47 54 -48 177 -7 l65 21 17 79 c17 85 21 214 8
286 -5 25 -11 61 -14 81 l-5 36 80 37 c44 20 86 36 92 36 7 0 25 -21 42 -48
40 -64 177 -201 248 -247 l58 -39 52 26 c29 14 71 40 94 57 l42 30 -5 66 c-7
117 -43 247 -96 353 -13 25 -18 46 -12 50 5 5 38 31 74 59 l66 50 39 -34 c58
-49 161 -115 229 -147 48 -23 139 -55 155 -56 2 0 37 34 77 74 l73 75 -23 68
c-42 124 -118 250 -204 339 -11 11 -3 27 44 89 31 41 62 75 68 75 7 0 35 -11
62 -24 87 -42 220 -77 314 -83 l89 -6 33 54 c19 30 42 71 52 92 l18 38 -34 55
c-41 69 -146 178 -229 239 -35 26 -65 48 -67 50 -4 4 58 157 68 168 4 5 27 3
51 -4 53 -14 264 -20 317 -9 20 5 52 11 70 14 19 2 36 6 38 9 9 9 44 118 50
154 3 21 8 41 10 44 2 4 -15 24 -39 46 -81 74 -197 143 -309 184 -49 17 -67
28 -63 39 2 8 7 48 11 88 4 40 11 75 16 78 5 3 30 8 56 10 117 10 206 32 312
77 l75 32 3 116 c2 112 2 117 -20 131 -71 44 -238 94 -353 105 -38 3 -73 11
-77 16 -5 8 -21 146 -20 174 0 4 18 13 39 20 21 8 57 22 80 33 24 11 45 20 48
20 12 0 116 69 176 117 64 51 67 55 62 91 -3 20 -15 68 -27 106 -19 61 -25 71
-51 78 -86 23 -278 28 -384 8 -35 -6 -67 -8 -71 -3 -9 11 -72 165 -68 167 2 1
38 28 80 60 86 64 171 152 223 229 l34 50 -31 61 c-17 34 -42 76 -56 95 l-26
33 -71 -6 c-38 -3 -80 -8 -93 -10 -76 -16 -157 -41 -223 -70 l-77 -33 -56 73
c-55 71 -64 89 -48 96 15 6 109 132 140 188 43 77 84 190 78 214 -3 12 -33 49
-68 84 -61 62 -64 63 -103 57 -84 -13 -222 -90 -371 -208 -21 -17 -23 -16 -62
15 -22 18 -56 46 -76 61 l-36 28 24 47 c68 136 120 375 91 421 -9 15 -156 101
-173 101 -47 0 -230 -164 -303 -272 -22 -32 -42 -58 -44 -58 -4 0 -178 70
-182 74 -1 0 2 21 7 46 4 25 11 63 15 85 7 47 8 190 0 225 -2 14 -9 48 -15 76
l-11 51 -67 21 c-121 37 -135 37 -172 0 -54 -54 -136 -188 -177 -287 l-38 -93
-50 6 c-27 3 -71 8 -97 12 l-48 7 -1 46 c-2 102 -37 239 -86 339 l-38 77 -101
3 c-86 2 -102 0 -115 -15z m271 -608 c53 -3 107 -7 120 -10 14 -2 43 -6 65
-10 351 -51 709 -195 1030 -416 100 -69 145 -114 145 -145 0 -23 -50 -87 -180
-229 -120 -132 -128 -135 -197 -87 -160 111 -212 143 -315 194 -178 89 -399
157 -593 182 -97 13 -361 14 -465 1 -323 -39 -647 -171 -909 -371 -62 -48 -87
-45 -148 19 -113 119 -232 257 -238 277 -10 32 16 64 118 139 162 120 347 222
542 299 86 34 251 86 308 98 10 2 26 5 35 8 9 3 33 8 52 11 19 3 42 8 50 10 8
2 38 7 65 11 28 3 59 8 69 10 11 2 72 6 135 10 64 4 117 8 118 9 3 2 38 0 193
-10z m218 -711 c353 -94 631 -257 881 -517 60 -63 66 -74 52 -103 -10 -23 -38
-38 -376 -199 -60 -29 -204 -98 -320 -154 -115 -56 -218 -103 -230 -105 -30
-5 -73 24 -80 53 -7 35 -17 139 -30 341 -3 41 -7 107 -10 145 -2 39 -7 108
-10 155 -3 47 -7 108 -10 135 -18 199 -18 232 4 254 12 12 23 21 26 21 3 0 49
-12 103 -26z m-651 10 c25 -7 41 -45 37 -89 -1 -16 -5 -64 -8 -105 -3 -41 -8
-111 -11 -155 -3 -44 -8 -102 -10 -130 -2 -27 -7 -88 -10 -135 -4 -47 -8 -105
-10 -130 -2 -25 -7 -90 -11 -145 -4 -55 -8 -109 -9 -120 -1 -11 -3 -26 -4 -32
-2 -24 -41 -53 -70 -53 -31 0 -97 30 -546 250 -148 72 -294 143 -322 157 -59
27 -83 55 -76 83 3 11 44 58 92 104 238 234 483 377 806 472 122 36 121 36
152 28z m-1250 -197 c176 -176 179 -182 116 -258 -21 -24 -44 -51 -52 -59 -33
-34 -121 -160 -167 -240 -165 -281 -238 -558 -238 -900 0 -122 15 -284 34
-373 10 -49 4 -87 -18 -109 -15 -16 -133 -54 -344 -111 l-77 -22 -24 24 c-23
20 -29 38 -43 121 -3 14 -7 32 -9 40 -2 8 -7 42 -11 75 -3 33 -8 69 -11 80 -9
38 -11 421 -2 490 17 139 20 161 35 235 65 321 181 598 363 865 30 44 57 82
60 85 4 3 22 25 41 50 61 81 145 160 171 160 17 0 66 -42 176 -153z m3304 99
c200 -215 373 -510 473 -806 39 -116 82 -279 90 -345 11 -81 19 -133 23 -150
3 -11 6 -114 8 -230 4 -215 -6 -339 -41 -509 -19 -97 -27 -114 -57 -122 -26
-6 -400 98 -424 118 -28 23 -32 54 -17 145 28 176 37 404 20 553 -35 314 -154
612 -343 862 -24 31 -49 63 -56 70 -7 7 -29 33 -50 57 -62 75 -60 81 115 257
180 183 182 183 259 100z m-182 -984 c8 -16 37 -119 47 -165 2 -10 5 -26 8
-35 3 -9 8 -35 12 -57 3 -22 8 -43 9 -46 8 -12 19 -189 19 -289 0 -183 -24
-352 -75 -523 -23 -79 -52 -106 -91 -86 -23 12 -240 157 -518 346 -85 58 -188
128 -228 155 -89 61 -108 87 -96 130 10 36 23 45 329 253 105 71 258 175 342
232 84 57 163 107 175 112 26 10 53 -1 67 -27z m-3066 -20 c40 -27 146 -99
237 -161 91 -62 245 -167 343 -233 177 -120 208 -150 199 -193 -6 -30 -17 -40
-116 -109 -138 -96 -523 -358 -660 -450 -96 -64 -124 -62 -150 11 -21 59 -66
264 -72 326 -2 29 -7 70 -9 92 -7 56 -7 229 0 295 22 197 76 427 106 453 31
25 43 22 122 -31z m1547 14 c128 -15 237 -72 340 -177 71 -73 118 -152 146
-247 19 -64 22 -95 20 -182 -6 -169 -57 -284 -180 -405 -115 -113 -252 -169
-417 -168 -160 1 -294 58 -409 173 -74 74 -142 184 -148 240 0 3 -6 19 -12 35
-17 43 -20 195 -5 262 57 265 257 440 545 476 25 3 40 2 120 -7z m566 -1277
c126 -61 321 -156 434 -211 113 -55 213 -106 222 -115 34 -30 22 -57 -64 -143
-160 -159 -307 -265 -503 -361 -174 -85 -427 -165 -472 -148 -26 9 -36 52 -29
116 3 26 8 91 12 143 3 52 7 111 9 130 2 19 6 85 10 145 4 61 8 126 10 145 3
33 7 93 21 275 7 107 40 152 100 140 11 -3 123 -55 250 -116z m-958 74 c15
-16 23 -38 24 -69 2 -53 4 -78 12 -169 3 -38 8 -106 11 -150 3 -44 7 -107 10
-140 7 -84 14 -179 19 -255 3 -36 8 -106 11 -157 6 -83 5 -93 -14 -112 -11
-11 -28 -18 -38 -16 -234 48 -476 148 -659 272 -163 111 -374 307 -374 348 0
32 21 47 170 118 74 35 239 115 365 177 373 183 388 189 415 183 14 -3 35 -16
48 -30z m-1444 -52 c7 -6 21 -32 31 -58 25 -64 98 -203 153 -288 213 -333 552
-605 928 -744 77 -28 254 -75 324 -86 19 -3 46 -7 60 -10 86 -15 287 -21 400
-11 371 31 720 167 1005 391 111 88 180 155 310 305 61 71 159 229 222 358 64
131 90 164 122 157 9 -2 84 -27 166 -55 83 -29 165 -56 183 -62 51 -15 75 -43
67 -81 -9 -45 -143 -317 -201 -407 -242 -382 -578 -683 -978 -880 -163 -80
-388 -160 -521 -186 -11 -2 -42 -8 -70 -14 -112 -22 -126 -24 -265 -35 -196
-16 -498 -1 -610 30 -8 3 -32 7 -54 11 -136 21 -373 103 -561 194 -506 246
-917 676 -1138 1191 -41 96 -45 129 -19 151 9 9 98 43 196 77 99 34 181 63
183 65 7 7 54 -3 67 -13z"/>
<path d="M2857 5314 c-1 -1 -33 -5 -71 -8 -122 -11 -144 -17 -141 -35 2 -9 4
-24 4 -34 1 -16 7 -18 44 -12 23 3 49 9 59 11 18 5 19 1 43 -226 8 -79 9 -80
43 -80 35 0 48 10 46 35 -1 11 -5 58 -9 105 -4 47 -11 102 -15 123 -9 43 -6
46 52 53 63 8 67 10 65 41 -2 27 -4 28 -60 29 -32 0 -59 -1 -60 -2z"/>
<path d="M3171 5288 c-5 -13 -43 -93 -85 -178 -42 -85 -76 -158 -76 -162 0 -5
17 -8 38 -8 32 0 40 5 55 33 20 36 15 35 137 23 17 -1 30 -13 42 -37 16 -30
39 -45 76 -48 18 -1 15 16 -19 141 -17 62 -32 118 -33 123 -3 12 -25 93 -32
118 -4 13 -16 17 -50 17 -37 0 -46 -4 -53 -22z m68 -145 c12 -36 21 -70 21
-74 0 -5 -17 -7 -37 -5 -21 3 -46 5 -55 5 -14 1 -12 11 15 71 17 39 32 70 33
70 1 0 12 -30 23 -67z"/>
<path d="M3506 5082 c-27 -92 -51 -172 -53 -179 -3 -6 12 -14 36 -18 48 -8 56
-8 56 3 1 4 7 31 14 59 12 50 14 53 39 47 41 -10 50 -24 57 -94 4 -36 8 -65 8
-65 1 0 19 -9 41 -18 l39 -18 -7 58 c-3 32 -9 70 -11 85 -4 22 0 30 24 44 36
21 55 63 54 116 -1 65 -22 84 -128 117 -52 17 -101 31 -108 31 -7 0 -32 -68
-61 -168z m192 52 c38 -15 40 -34 10 -68 -22 -24 -24 -24 -70 -10 l-46 14 10
38 c16 59 15 59 96 26z"/>
<path d="M2328 5210 c-98 -52 -126 -184 -59 -277 75 -104 230 -101 306 6 25
36 30 52 30 105 0 52 -5 70 -28 104 -15 23 -45 51 -67 62 -51 26 -132 26 -182
0z m180 -83 c47 -48 38 -137 -20 -178 -116 -83 -251 85 -147 182 47 44 120 42
167 -4z"/>
<path d="M3923 5108 c3 -13 14 -67 23 -121 15 -83 15 -102 4 -120 -7 -12 -25
-45 -41 -75 l-27 -53 31 -20 c18 -10 35 -19 38 -19 3 0 23 34 45 76 l39 76
108 51 c59 27 107 53 107 57 0 4 -16 15 -36 25 -36 17 -37 17 -106 -15 -38
-18 -71 -30 -73 -28 -3 2 -10 38 -16 80 -12 72 -14 77 -46 92 -46 22 -56 20
-50 -6z"/>
<path d="M1885 5019 c-49 -27 -90 -51 -92 -52 -2 -2 174 -317 181 -324 5 -5
76 37 76 44 0 3 -13 28 -30 55 -16 26 -30 52 -30 56 0 5 11 15 25 22 29 15 45
9 111 -40 l41 -31 36 17 c21 10 37 20 37 23 0 3 -28 25 -62 48 l-61 42 -1 53
c-1 58 -21 95 -68 122 -41 25 -66 19 -163 -35z m139 -52 c21 -32 10 -61 -30
-81 -47 -22 -47 -22 -72 22 l-21 39 37 20 c49 28 68 28 86 0z"/>
<path d="M2923 3529 c-221 -37 -387 -203 -439 -440 -19 -89 3 -229 53 -335 31
-67 156 -198 213 -225 116 -55 150 -64 250 -68 255 -8 475 162 540 417 13 49
16 187 6 219 -4 12 -9 30 -11 40 -24 119 -130 258 -246 326 -104 61 -245 86
-366 66z m179 -111 c0 -7 2 -17 3 -23 2 -5 3 -21 4 -33 1 -15 9 -26 21 -29 11
-3 37 -15 58 -27 207 -113 251 -377 92 -550 -170 -184 -470 -136 -578 92 -23
49 -27 70 -27 147 0 77 4 98 26 146 33 70 103 140 169 171 44 20 50 26 51 55
1 18 3 38 4 43 1 6 3 12 4 15 0 3 39 5 86 5 61 0 85 -4 87 -12z"/>
<path d="M1165 1969 c-82 -49 -154 -90 -159 -92 -11 -4 11 -64 25 -73 9 -5 61
22 138 70 22 14 42 26 45 26 3 0 135 78 144 85 5 4 -31 75 -37 74 -3 0 -73
-41 -156 -90z"/>
<path d="M5010 1951 l-44 -79 -50 28 c-177 98 -219 120 -226 120 -9 0 -35 -59
-29 -64 4 -4 267 -154 306 -174 20 -11 24 -7 64 66 85 152 84 151 63 167 -11
8 -24 15 -30 15 -6 0 -30 -36 -54 -79z"/>
<path d="M1243 1817 c-84 -56 -152 -105 -153 -109 0 -4 11 -19 24 -35 l24 -27
56 39 c115 81 130 89 122 69 -29 -75 -76 -219 -76 -232 0 -10 11 -29 24 -44
l23 -28 90 78 c49 42 115 99 147 126 l57 49 -22 23 c-13 13 -27 24 -32 24 -5
0 -42 -29 -82 -65 -40 -36 -76 -65 -79 -65 -3 0 14 54 37 121 39 112 41 122
27 146 -8 15 -19 28 -25 30 -5 1 -78 -43 -162 -100z"/>
<path d="M4518 1778 l-25 -32 47 -76 c26 -41 72 -115 101 -164 30 -49 58 -89
64 -89 5 0 18 12 29 26 18 25 18 27 2 52 -19 29 -18 31 38 100 22 28 41 52 43
54 1 2 16 -2 34 -9 29 -12 32 -12 54 16 20 25 21 30 8 38 -19 11 -344 116
-359 116 -6 0 -23 -14 -36 -32z m155 -79 c34 -11 63 -22 65 -24 2 -2 -10 -22
-26 -44 -22 -30 -33 -38 -38 -29 -4 7 -23 37 -41 66 -19 28 -31 52 -28 52 3 0
34 -9 68 -21z"/>
<path d="M1600 1625 l-23 -25 41 -41 c25 -26 38 -47 34 -54 -7 -12 -71 -84
-154 -173 -39 -42 -40 -44 -22 -64 41 -44 44 -42 144 77 52 63 99 114 104 114
5 1 28 -15 52 -34 l42 -35 22 27 21 27 -43 35 c-23 20 -76 66 -119 103 l-76
67 -23 -24z"/>
<path d="M4361 1608 c-27 -33 -35 -18 67 -128 28 -30 50 -56 48 -57 -1 -2 -57
13 -123 33 -117 34 -123 35 -147 19 -14 -10 -26 -21 -26 -26 0 -5 50 -76 112
-158 l112 -150 27 22 c15 12 28 25 28 28 1 3 -29 46 -65 94 -56 73 -63 87 -43
81 13 -4 33 -9 44 -11 11 -3 59 -17 106 -33 l86 -28 33 27 c39 33 45 21 -76
148 -45 48 -99 105 -120 127 l-39 42 -24 -30z"/>
<path d="M1823 1238 c-77 -115 -99 -155 -91 -165 9 -12 114 -78 195 -124 31
-18 32 -18 48 7 21 32 15 39 -74 89 -39 22 -71 44 -71 49 0 5 11 24 25 42 l25
33 57 -34 57 -34 16 27 17 27 -53 33 c-30 19 -54 37 -54 41 0 5 9 20 20 34
l20 26 70 -40 c38 -21 74 -39 79 -39 9 0 45 50 39 55 -2 1 -18 10 -37 20 -19
9 -65 37 -103 61 -37 24 -72 44 -76 44 -4 -1 -53 -69 -109 -152z"/>
<path d="M3965 1308 c-140 -49 -157 -261 -28 -338 58 -35 147 -34 200 3 73 50
102 132 77 216 -30 101 -144 156 -249 119z m151 -92 c59 -59 45 -148 -28 -185
-57 -28 -121 -12 -150 37 -33 55 -27 107 18 148 29 28 43 34 81 34 38 0 50 -5
79 -34z"/>
<path d="M2217 1188 c-8 -18 -40 -92 -71 -165 -31 -72 -56 -136 -56 -141 0
-14 60 -36 69 -26 4 5 18 34 30 64 30 72 33 75 70 56 28 -15 31 -21 32 -69 1
-28 1 -56 0 -61 -5 -23 11 -55 29 -60 62 -18 57 -25 52 72 -4 87 -3 89 20 95
12 4 34 22 47 42 19 28 23 44 19 80 -3 25 -11 51 -17 59 -11 12 -185 86 -204
86 -4 0 -13 -15 -20 -32z m115 -75 c53 -20 48 -16 53 -41 2 -11 -5 -28 -16
-38 -17 -15 -24 -16 -58 -4 -63 21 -65 23 -50 64 15 41 15 41 71 19z"/>
<path d="M3670 1175 c-19 -7 -35 -19 -34 -26 1 -8 27 -89 59 -180 l58 -167 30
9 c17 5 34 12 39 17 7 7 -90 313 -111 348 -4 8 -16 8 -41 -1z"/>
<path d="M3379 1097 l-145 -30 4 -28 c5 -33 21 -38 80 -26 24 5 45 7 47 5 2
-1 6 -21 9 -43 3 -22 13 -74 20 -115 8 -41 17 -91 21 -111 5 -36 6 -37 41 -29
20 5 38 10 40 13 5 5 -3 55 -31 180 -30 135 -33 123 35 137 57 12 59 14 53 39
-7 32 -12 41 -21 40 -4 -1 -72 -15 -153 -32z"/>
<path d="M2576 1099 c-3 -8 -19 -75 -36 -149 -17 -74 -34 -152 -39 -173 -10
-41 -10 -40 41 -51 31 -7 36 -2 44 49 3 21 8 47 10 59 3 11 8 38 11 59 3 20 9
37 13 37 4 0 29 -49 55 -110 26 -60 53 -114 60 -120 13 -11 71 -17 79 -9 2 2
7 36 11 74 4 39 8 83 10 100 2 16 7 61 10 100 3 38 8 78 11 88 5 14 -1 17 -35
17 -38 0 -41 -2 -42 -27 0 -16 -2 -35 -4 -44 -1 -8 -6 -42 -10 -75 -8 -69 -11
-75 -24 -43 -5 14 -18 45 -29 69 -11 25 -30 69 -43 98 -12 28 -27 52 -33 52
-6 0 -21 3 -33 6 -15 4 -24 1 -27 -7z"/>
<path d="M3049 1062 c-25 -3 -30 -14 -84 -180 -32 -97 -58 -181 -59 -186 0 -5
15 -10 35 -12 33 -3 37 -1 45 29 l10 32 82 5 82 5 11 -33 c10 -30 14 -32 50
-30 21 2 39 5 39 8 0 3 -34 87 -76 187 -57 136 -80 181 -93 180 -9 -1 -28 -3
-42 -5z m68 -226 c-2 -6 -24 -11 -50 -13 l-46 -3 20 58 c10 31 22 64 25 72 6
16 57 -97 51 -114z"/>
</g>
</svg>
